<svg xmlns="http://www.w3.org/2000/svg" width="50" height="48" viewBox="0 0 50 48">
  <path d="M106.284,3761.13a5,5,0,0,1-4.988-4.77H99.842a4.993,4.993,0,0,1-9.976,0H88.412a4.993,4.993,0,0,1-9.976,0H76.981a4.993,4.993,0,0,1-9.981-.23v-38a4.993,4.993,0,1,1,9.987,0v0.81H78.43v-0.81a4.993,4.993,0,1,1,9.987,0v0.81H89.86v-0.81a4.993,4.993,0,1,1,9.986,0v0.81h1.443v-0.81a4.994,4.994,0,1,1,9.987,0v0.82h2.256a3.546,3.546,0,0,1,0,7.09,0.2,0.2,0,0,1-.077.01h-2.183v23.21h2.183a0.2,0.2,0,0,1,.077.01,3.541,3.541,0,0,1,0,7.08,0.2,0.2,0,0,1-.077.01h-2.188A5,5,0,0,1,106.284,3761.13Zm-3.516-5.51v0.51a3.516,3.516,0,1,0,7.032,0v-38a3.516,3.516,0,1,0-7.032,0v37.49Zm-11.43,0v0.51a3.516,3.516,0,1,0,7.031,0v-38a3.516,3.516,0,1,0-7.031,0v37.49Zm-11.43,0v0.51a3.516,3.516,0,1,0,7.031,0v-38a3.516,3.516,0,1,0-7.031,0v37.49Zm-7.915-41.01a3.522,3.522,0,0,0-3.516,3.52v38a3.516,3.516,0,1,0,7.031,0v-38A3.522,3.522,0,0,0,71.993,3714.61Zm39.285,40.27h2.182a2.065,2.065,0,0,0,0-4.13c-0.024,0-.046-0.01-0.069-0.01h-2.113v4.14Zm-11.431,0h1.444v-4.14H99.847v4.14Zm-11.43,0h1.444v-4.14H88.417v4.14Zm-11.43,0H78.43v-4.14H76.987v4.14Zm22.861-5.62h1.444v-23.22H99.847v23.22Zm-11.43,0h1.444v-23.22H88.417v23.22Zm-11.43,0H78.43v-23.22H76.987v23.22Zm34.291-24.69h2.182a2.07,2.07,0,0,0,0-4.14h-2.183v4.14h0Zm-11.431-.01h1.444v-4.14H99.847v4.14Zm-11.43,0h1.444v-4.14H88.417v4.14Zm-11.43,0H78.43v-4.14H76.987v4.14Z" transform="translate(-67 -3713.13)"/>
</svg>
