<svg xmlns="http://www.w3.org/2000/svg" width="47" height="60.97" viewBox="0 0 47 60.97">
  <path d="M253.869,4041.61a2.081,2.081,0,0,1-.536,1.43,5.7,5.7,0,0,0-.556.89,1.076,1.076,0,0,0,.531,1.44,1.126,1.126,0,0,0,1.47-.52,3.647,3.647,0,0,1,.364-0.57,4.287,4.287,0,0,0,0-5.35,2.173,2.173,0,0,1,0-2.86c0.056-.08.113-0.16,0.168-0.24a1.064,1.064,0,0,0-.3-1.5,1.127,1.127,0,0,0-1.533.29l-0.145.21a4.269,4.269,0,0,0,0,5.34A2.089,2.089,0,0,1,253.869,4041.61Zm-13.579,0a2.081,2.081,0,0,1-.536,1.43,5.7,5.7,0,0,0-.556.89,1.075,1.075,0,0,0,.531,1.44,1.126,1.126,0,0,0,1.47-.52,3.647,3.647,0,0,1,.364-0.57,4.287,4.287,0,0,0,0-5.35,2.173,2.173,0,0,1,0-2.86c0.056-.08.113-0.16,0.168-0.24a1.064,1.064,0,0,0-.3-1.5,1.128,1.128,0,0,0-1.534.29c-0.047.07-.1,0.14-0.145,0.21a4.273,4.273,0,0,0,0,5.34A2.085,2.085,0,0,1,240.29,4041.61Zm-13.579,0a2.081,2.081,0,0,1-.536,1.43,5.7,5.7,0,0,0-.556.89,1.075,1.075,0,0,0,.531,1.44,1.126,1.126,0,0,0,1.47-.52,3.647,3.647,0,0,1,.364-0.57,4.287,4.287,0,0,0,0-5.35,2.173,2.173,0,0,1,0-2.86c0.056-.08.113-0.16,0.168-0.24a1.064,1.064,0,0,0-.3-1.5,1.127,1.127,0,0,0-1.533.29l-0.145.21a4.269,4.269,0,0,0,0,5.34A2.089,2.089,0,0,1,226.711,4041.61Zm36.342,8.78a2.957,2.957,0,0,0-2.73,1.8h-1.764a1.08,1.08,0,1,0,0,2.16h1.764A2.932,2.932,0,1,0,263.053,4050.39Zm0,3.6a0.72,0.72,0,1,1,.737-0.72A0.728,0.728,0,0,1,263.053,4053.99Zm-0.737,35.58v-1.73a1.105,1.105,0,0,0-2.21,0v1.73a2.885,2.885,0,0,0-1.841,2.67,2.947,2.947,0,0,0,5.893,0A2.884,2.884,0,0,0,262.316,4089.57Zm-1.1,3.39a0.72,0.72,0,1,1,.737-0.72A0.727,0.727,0,0,1,261.211,4092.96Zm-12.587-38.61h5.321a1.08,1.08,0,1,0,0-2.16h-5.321A1.08,1.08,0,1,0,248.624,4054.35Zm-10.543,16.42h-5.322a1.085,1.085,0,1,0,0,2.17h5.322A1.085,1.085,0,1,0,238.081,4070.77Zm1.069-8.21a1.091,1.091,0,0,0,1.1,1.08h5.321a1.08,1.08,0,1,0,0-2.16h-5.321A1.1,1.1,0,0,0,239.15,4062.56Zm8.834,8.21h-5.321a1.085,1.085,0,1,0,0,2.17h5.321A1.085,1.085,0,1,0,247.984,4070.77Zm12.674-1.13a0.966,0.966,0,0,0,.333.05,1.1,1.1,0,0,0,1.054-.75,5.636,5.636,0,0,0,.271-1.73,5.693,5.693,0,0,0-1.83-4.16,1.127,1.127,0,0,0-1.563.04,1.067,1.067,0,0,0,.043,1.53,3.518,3.518,0,0,1,.971,3.67A1.074,1.074,0,0,0,260.658,4069.64Zm-10.5-8.16a1.08,1.08,0,1,0,0,2.16h5.321a1.08,1.08,0,1,0,0-2.16h-5.321Zm7.38,9.14a3.9,3.9,0,0,1-1.079.15h-3.894a1.085,1.085,0,1,0,0,2.17h3.894a5.952,5.952,0,0,0,1.732-.26,1.077,1.077,0,0,0,.73-1.35A1.106,1.106,0,0,0,257.539,4070.62Zm2.082,13.39a1.131,1.131,0,0,0,1.509.4,1.072,1.072,0,0,0,.405-1.48,5.894,5.894,0,0,0-5.075-2.86h-0.34a1.08,1.08,0,1,0,0,2.16h0.34A3.676,3.676,0,0,1,259.621,4084.01Zm-31.909-30.74a1.091,1.091,0,0,0,1.105,1.08h5.321a1.08,1.08,0,1,0,0-2.16h-5.321A1.1,1.1,0,0,0,227.712,4053.27Zm1.57,18.59a1.1,1.1,0,0,0-1.105-1.09h-3.321a5.94,5.94,0,0,0-2.393.5,1.076,1.076,0,0,0-.556,1.43,1.108,1.108,0,0,0,1.009.64,1.193,1.193,0,0,0,.451-0.09,3.614,3.614,0,0,1,1.489-.31h3.321A1.1,1.1,0,0,0,229.282,4071.86Zm-6.595,7.51a3.518,3.518,0,0,1-1.477-2.87,3.6,3.6,0,0,1,.062-0.66,1.08,1.08,0,0,0-.883-1.26,1.105,1.105,0,0,0-1.289.86,5.651,5.651,0,0,0,2.271,5.66,1.08,1.08,0,0,0,.657.22,1.134,1.134,0,0,0,.889-0.44A1.062,1.062,0,0,0,222.687,4079.37ZM220,4057.48a1.062,1.062,0,0,0,.348.06,1.1,1.1,0,0,0,1.048-.75,3.667,3.667,0,0,1,2.985-2.41,1.082,1.082,0,0,0,.954-1.21,1.1,1.1,0,0,0-1.239-.93,5.85,5.85,0,0,0-4.8,3.87A1.079,1.079,0,0,0,220,4057.48Zm11.733,22.59H226.41a1.08,1.08,0,1,0,0,2.16h5.321A1.08,1.08,0,1,0,231.731,4080.07Zm9.9,0h-5.321a1.08,1.08,0,1,0,0,2.16h5.321A1.08,1.08,0,1,0,241.634,4080.07Zm-2.913-25.72h5.321a1.08,1.08,0,1,0,0-2.16H238.72A1.08,1.08,0,1,0,238.721,4054.35Zm-9.474,8.21a1.09,1.09,0,0,0,1.1,1.08h5.321a1.08,1.08,0,1,0,0-2.16h-5.321A1.1,1.1,0,0,0,229.247,4062.56Zm-3.477-1.08h-0.913a3.66,3.66,0,0,1-2.918-1.42,1.119,1.119,0,0,0-1.548-.22,1.063,1.063,0,0,0-.22,1.51,5.844,5.844,0,0,0,4.686,2.29h0.913A1.08,1.08,0,1,0,225.77,4061.48Zm25.768,18.59h-5.322a1.08,1.08,0,1,0,0,2.16h5.322A1.08,1.08,0,1,0,251.538,4080.07Z" transform="translate(-219 -4034.16)"/>
</svg>
