<svg xmlns="http://www.w3.org/2000/svg" width="56" height="42.97" viewBox="0 0 56 42.97">
  <path d="M66.533,4129.49a0.905,0.905,0,0,0,.66-0.28l3.733-3.77a0.957,0.957,0,0,0,0-1.34,0.923,0.923,0,0,0-1.32,0l-3.733,3.78a0.945,0.945,0,0,0,0,1.33A0.905,0.905,0,0,0,66.533,4129.49Zm0,4.72a0.936,0.936,0,0,0,.66-0.27l1.867-1.89a0.957,0.957,0,0,0,0-1.34,0.923,0.923,0,0,0-1.32,0l-1.867,1.89a0.957,0.957,0,0,0,0,1.34A0.936,0.936,0,0,0,66.533,4134.21Zm3.071-5.39a0.986,0.986,0,0,0-.271.67,0.931,0.931,0,0,0,1.6.67,0.991,0.991,0,0,0,.271-0.67,1.01,1.01,0,0,0-.271-0.67A0.968,0.968,0,0,0,69.6,4128.82Zm1.87-.55a0.918,0.918,0,0,0,1.32,0l2.8-2.83a0.957,0.957,0,0,0,0-1.34,0.923,0.923,0,0,0-1.32,0l-2.8,2.83A0.957,0.957,0,0,0,71.473,4128.27Zm2.8,0.55-8.4,8.5a0.957,0.957,0,0,0,0,1.34,0.918,0.918,0,0,0,1.32,0l8.4-8.5a0.957,0.957,0,0,0,0-1.34A0.923,0.923,0,0,0,74.273,4128.82Zm1.864-1.89a1,1,0,0,0-.271.67,0.933,0.933,0,1,0,1.867,0,1.01,1.01,0,0,0-.271-0.67A0.968,0.968,0,0,0,76.137,4126.93Zm2.8-2.83-0.933.94a0.957,0.957,0,0,0,0,1.34,0.918,0.918,0,0,0,1.32,0l0.933-.94a0.957,0.957,0,0,0,0-1.34A0.923,0.923,0,0,0,78.94,4124.1Zm32.862-5.94H64.2a4.223,4.223,0,0,0-4.2,4.24v28.34a4.225,4.225,0,0,0,4.2,4.25H82.4v1.89H79.133a3.3,3.3,0,0,0-3.267,3.31,0.933,0.933,0,1,0,1.867,0,1.414,1.414,0,0,1,1.4-1.42H96.867a1.414,1.414,0,0,1,1.4,1.42,0.933,0.933,0,1,0,1.866,0,3.3,3.3,0,0,0-3.266-3.31H93.6v-1.89h18.2a4.225,4.225,0,0,0,4.2-4.25V4122.4A4.223,4.223,0,0,0,111.8,4118.16Zm-20.069,38.72H84.267v-1.89h7.467v1.89Zm22.4-6.14a2.343,2.343,0,0,1-2.331,2.36H64.2a2.343,2.343,0,0,1-2.331-2.36V4122.4a2.35,2.35,0,0,1,2.331-2.36h47.6a2.352,2.352,0,0,1,2.331,2.37v28.33Zm-2.8-29.75H64.667a1.882,1.882,0,0,0-1.867,1.89v24.56a1.882,1.882,0,0,0,1.867,1.89h46.666a1.882,1.882,0,0,0,1.867-1.89v-24.56A1.882,1.882,0,0,0,111.333,4120.99Zm-46.666,26.45v-24.56h46.666v24.56H64.667Zm25.2,2.83H86.133a0.945,0.945,0,0,0,0,1.89h3.733A0.945,0.945,0,0,0,89.867,4150.27Z" transform="translate(-60 -4118.16)"/>
</svg>
