<svg xmlns="http://www.w3.org/2000/svg" width="43" height="49" viewBox="0 0 43 49">
  <path d="M259.24,4122.1c-8.638,0-16.75-6.99-16.75-6.99s-8.112,6.89-16.751,6.89a20.083,20.083,0,0,1-4.739-.52v13.66a26.264,26.264,0,0,0,4.952,15.32c3.271,4.48,8.639,10.54,16.122,13.55l0.426,0.1,0.425-.21c7.373-2.91,12.852-8.97,16.123-13.55A25.818,25.818,0,0,0,264,4135.03v-13.45A25.857,25.857,0,0,1,259.24,4122.1Zm0.213,2.08a19.635,19.635,0,0,0,2.633-.21v11.06a24.308,24.308,0,0,1-.274,3.65h-18.37v-20.22C246.2,4120.46,252.4,4124.18,259.453,4124.18Zm-36.347-.21c0.841,0.1,1.681.1,2.633,0.21,6.877,0,12.821-3.45,15.7-5.49v19.99H223.38a24.308,24.308,0,0,1-.274-3.65v-11.06Zm4.639,25.24a23.934,23.934,0,0,1-3.98-8.55h17.672v20.75C235.269,4158.46,230.621,4153.24,227.745,4149.21Zm29.7,0c-2.927,4.1-7.687,9.43-14.016,12.35v-20.9h18A23.762,23.762,0,0,1,257.448,4149.21Z" transform="translate(-221 -4115.13)"/>
</svg>
