<svg xmlns="http://www.w3.org/2000/svg" width="49" height="64" viewBox="0 0 49 64">
  <path d="M237.593,3760.21a1,1,0,1,1,0-2h11.816a1,1,0,1,1,0,2H237.593Zm1.313,3.96a1,1,0,1,1,0-2h9.19a1,1,0,1,1,0,2h-9.19Zm3.638-13.82a1.012,1.012,0,0,1-2.024,0,52.012,52.012,0,0,0-.718-10.27,29.214,29.214,0,0,0-3.488-8.84,0.985,0.985,0,0,1,.392-1.35,1.03,1.03,0,0,1,1.379.38,31.2,31.2,0,0,1,3.709,9.42A53.763,53.763,0,0,1,242.544,3750.35Zm3.938,0a1.012,1.012,0,0,1-2.024,0,53.763,53.763,0,0,1,.75-10.66,31.2,31.2,0,0,1,3.709-9.42,1.018,1.018,0,0,1,1.377-.38,0.983,0.983,0,0,1,.391,1.35,29.283,29.283,0,0,0-3.487,8.84A51.953,51.953,0,0,0,246.482,3750.35Zm-9.592-18.64a1,1,0,0,1-.656-1.26,1.016,1.016,0,0,1,1.275-.64,12.613,12.613,0,0,1,1.884.8l0.055,0.03c0.883,0.44,1.618.78,2.164,0.34l1.249-1a1.03,1.03,0,0,1,1.426.15,0.984,0.984,0,0,1-.149,1.4l-1.249,1c-1.556,1.25-2.829.64-4.362-.11l-0.046-.02A10.281,10.281,0,0,0,236.89,3731.71Zm7.627-22.69a1.016,1.016,0,0,1-2.032,0v-3.88a1.016,1.016,0,0,1,2.032,0v3.88Zm4.976,20.79a1.016,1.016,0,0,1,1.275.64,1,1,0,0,1-.656,1.26,10.389,10.389,0,0,0-1.593.69l-0.046.02c-1.531.75-2.806,1.36-4.362,0.11l-1.25-1a0.984,0.984,0,0,1-.148-1.4,1.018,1.018,0,0,1,1.425-.14l1.25,1c0.546,0.43,1.279.09,2.164-.34l0.055-.03A11.752,11.752,0,0,1,249.493,3729.81Zm6.8-10.12a17.575,17.575,0,0,1,1.819,23.07,62.438,62.438,0,0,1-4.555,5.43c-2.115,2.31-3.042,3.31-3.042,6.68a1.011,1.011,0,0,1-1.017,1H237.6a1.011,1.011,0,0,1-1.018-1c0-3.33-.947-4.35-3.047-6.62h0a59.071,59.071,0,0,1-4.629-5.49,17.7,17.7,0,0,1-2.59-4.98,17.544,17.544,0,0,1,.485-12.32l0.019-.04a17.977,17.977,0,0,1,9.779-9.59h0a18.377,18.377,0,0,1,13.827,0,18.007,18.007,0,0,1,5.871,3.86h0Zm3.263,12.58a15.636,15.636,0,0,0-4.7-11.17,16.3,16.3,0,0,0-17.485-3.43h0a16.131,16.131,0,0,0-5.206,3.43,15.846,15.846,0,0,0-3.469,5.08l-0.021.05a15.663,15.663,0,0,0-.428,10.94,15.94,15.94,0,0,0,2.3,4.41,58.212,58.212,0,0,0,4.493,5.33h0c2.261,2.43,3.386,3.65,3.561,6.96H248.5c0.174-3.33,1.277-4.54,3.549-7.01a59.676,59.676,0,0,0,4.421-5.28A15.606,15.606,0,0,0,259.551,3732.27Zm-19.332,35.87a1,1,0,1,1,0-2h6.564a1,1,0,1,1,0,2h-6.564Zm15.752-55.57a1.024,1.024,0,0,1-1.383.37,0.991,0.991,0,0,1-.373-1.36l1.969-3.36a1.033,1.033,0,0,1,1.383-.37,1,1,0,0,1,.373,1.37Zm-23.186-.99a0.989,0.989,0,0,1-.373,1.36,1.022,1.022,0,0,1-1.381-.37l-1.969-3.35a0.989,0.989,0,0,1,.373-1.36,1.021,1.021,0,0,1,1.383.36Zm-8.858,7.98a0.989,0.989,0,0,1,.373,1.36,1.021,1.021,0,0,1-1.38.37l-3.412-1.94a0.986,0.986,0,0,1-.374-1.36,1.011,1.011,0,0,1,1.382-.36Zm40.155,1.73a1.023,1.023,0,0,1-1.382-.37,0.988,0.988,0,0,1,.372-1.36l3.412-1.94a1.023,1.023,0,0,1,1.382.37,0.991,0.991,0,0,1-.372,1.36Zm-31.141,14.93a0.984,0.984,0,0,1-.54,1.3,1.009,1.009,0,0,1-1.325-.53,12.933,12.933,0,0,1-.792-2.52,13.288,13.288,0,0,1-.271-2.64,1.017,1.017,0,0,1,2.033,0,11.3,11.3,0,0,0,.224,2.25,10.955,10.955,0,0,0,.671,2.14h0Zm0-8.78a1.017,1.017,0,0,1-1.325.53,0.987,0.987,0,0,1-.54-1.3,13.218,13.218,0,0,1,1.234-2.25h0a13.124,13.124,0,0,1,1.652-1.97,13.3,13.3,0,0,1,2.007-1.63h0a12.751,12.751,0,0,1,2.285-1.21,13.011,13.011,0,0,1,2.566-.78,13.391,13.391,0,0,1,2.681-.27,1,1,0,1,1,0,2,12.017,12.017,0,0,0-2.285.22,11.314,11.314,0,0,0-2.177.66,11.471,11.471,0,0,0-1.935,1.04h0a11.42,11.42,0,0,0-3.106,3.06h0A10.874,10.874,0,0,0,232.941,3727.44Z" transform="translate(-219 -3704.16)"/>
</svg>
