<svg xmlns="http://www.w3.org/2000/svg" width="61" height="59.97" viewBox="0 0 61 59.97">
  <path d="M243.5,3794.29a21.353,21.353,0,0,0-19.072,30.95,1.017,1.017,0,0,0,1.815-.92,19.121,19.121,0,0,1-2.06-8.69,19.317,19.317,0,0,1,38.634,0,19.138,19.138,0,0,1-3.862,11.59,1.013,1.013,0,0,0,.2,1.42,0.991,0.991,0,0,0,.61.2,1.027,1.027,0,0,0,.814-0.4A21.345,21.345,0,0,0,243.5,3794.29Zm16.267,21.34a16.267,16.267,0,1,0-31.182,6.5,1,1,0,0,0,.933.61,0.961,0.961,0,0,0,.405-0.08,1.022,1.022,0,0,0,.526-1.34,14.231,14.231,0,1,1,26.475-.94,1.015,1.015,0,0,0,1.916.67A16.163,16.163,0,0,0,259.767,3815.63Zm-39.65-1.01h-6.1a1.015,1.015,0,1,0,0,2.03h6.1A1.015,1.015,0,1,0,220.117,3814.62Zm52.866,0h-6.1a1.015,1.015,0,1,0,0,2.03h6.1A1.015,1.015,0,1,0,272.983,3814.62ZM243.5,3793.27a1.013,1.013,0,0,0,1.017-1.01v-6.1a1.017,1.017,0,1,0-2.034,0v6.1A1.013,1.013,0,0,0,243.5,3793.27Zm16.535,6.85a1.009,1.009,0,0,0,.719-0.3l5.831-5.83a1.014,1.014,0,1,0-1.437-1.43l-5.832,5.83A1.015,1.015,0,0,0,260.035,3800.12Zm-33.789-.3a1.014,1.014,0,0,0,1.438-1.43l-5.832-5.84a1.029,1.029,0,0,0-1.437,0,1.018,1.018,0,0,0,0,1.44Zm25.993-4.77a0.931,0.931,0,0,0,.4.08,1.014,1.014,0,0,0,.936-0.62l1.192-2.8a1.024,1.024,0,0,0-.539-1.34,1.014,1.014,0,0,0-1.333.54l-1.192,2.81A1.014,1.014,0,0,0,252.239,3795.05Zm-18.441-.71a1.015,1.015,0,0,0,.943.64,1.033,1.033,0,0,0,.381-0.08,1.014,1.014,0,0,0,.562-1.32l-1.143-2.83a1.017,1.017,0,0,0-1.886.76Zm-10.887,12.56a1.023,1.023,0,0,0-.538-1.34l-2.808-1.19a1.016,1.016,0,1,0-.794,1.87l2.808,1.2a1.106,1.106,0,0,0,.4.08A1.028,1.028,0,0,0,222.911,3806.9Zm46.039-1.55a1.017,1.017,0,0,0-1.324-.56l-2.827,1.14a1.019,1.019,0,0,0,.763,1.89l2.827-1.14A1.024,1.024,0,0,0,268.95,3805.35Zm-11.017,19.43a1.014,1.014,0,0,0-1.389-.37l-2.877,1.66v-3.32a1.017,1.017,0,1,0-2.034,0v3.32l-2.877-1.66a1.016,1.016,0,1,0-1.017,1.76l2.878,1.66-2.878,1.66a1.017,1.017,0,0,0-.372,1.39,1.008,1.008,0,0,0,1.389.37l2.877-1.66v3.32a1.017,1.017,0,1,0,2.034,0v-3.32l2.877,1.66a1.042,1.042,0,0,0,.507.14,1.018,1.018,0,0,0,.509-1.9l-2.877-1.66,2.877-1.66A1.017,1.017,0,0,0,257.933,3824.78Zm-19.317,6.1a1.017,1.017,0,0,0-.372-1.39l-2.877-1.66,2.877-1.66a1.016,1.016,0,1,0-1.017-1.76l-2.877,1.66v-3.32a1.017,1.017,0,1,0-2.033,0v3.32l-2.878-1.66a1.016,1.016,0,1,0-1.016,1.76l2.877,1.66-2.877,1.66a1.016,1.016,0,0,0-.372,1.39,1.007,1.007,0,0,0,1.388.37l2.878-1.66v3.32a1.017,1.017,0,1,0,2.033,0v-3.32l2.877,1.66a1.048,1.048,0,0,0,.507.14A1.031,1.031,0,0,0,238.616,3830.88Zm10.167,5.11a1.023,1.023,0,0,0-1.389-.37l-2.877,1.66v-3.32a1.017,1.017,0,1,0-2.034,0v3.32l-2.877-1.66a1.016,1.016,0,1,0-1.017,1.76l2.878,1.66-2.878,1.66a1.019,1.019,0,0,0,.51,1.9,0.944,0.944,0,0,0,.507-0.14l2.877-1.66v3.32a1.017,1.017,0,1,0,2.034,0v-3.32l2.877,1.66a0.944,0.944,0,0,0,.507.14,1.018,1.018,0,0,0,.509-1.9l-2.877-1.66,2.877-1.66A1.017,1.017,0,0,0,248.783,3835.99Z" transform="translate(-213 -3785.16)"/>
</svg>
