<svg xmlns="http://www.w3.org/2000/svg" width="44" height="51" viewBox="0 0 44 51">
  <path d="M110.12,3909.48H107.6V3891.2h1a0.884,0.884,0,0,0,.88-0.88V3869.6a2.347,2.347,0,1,0-1.76,0v2.38H70.285v-2.38a2.347,2.347,0,1,0-1.76,0v20.72a0.884,0.884,0,0,0,.88.88h1v18.28H67.88a0.875,0.875,0,0,0-.88.87v4.89a0.875,0.875,0,0,0,.88.87h42.24a0.875,0.875,0,0,0,.88-0.87v-4.89A0.875,0.875,0,0,0,110.12,3909.48ZM70.285,3878.1h37.43v2.62H70.285v-2.62Zm0,4.36h37.43v2.62H70.285v-2.62Zm38.31-15.6a0.584,0.584,0,0,1,.586.58,0.587,0.587,0,1,1-1.173,0A0.584,0.584,0,0,1,108.6,3866.86Zm-0.88,6.87v2.62H70.285v-2.62h37.43Zm-38.31-6.87a0.584,0.584,0,0,1,.587.58,0.587,0.587,0,1,1-1.173,0A0.584,0.584,0,0,1,69.405,3866.86Zm0.88,19.97h37.43v2.62H70.285v-2.62Zm32.5,11.16-11.1,7.04V3891.2h11.1v6.79Zm0,2.08v6.15h-9.7Zm-16.477-2.08-11.1,7.04v-1.89l11.1-7.03v1.88Zm0,2.08v6.15h-9.7Zm0-6.03-11.1,7.03v-9.87h11.1v2.84Zm-14.147-2.84h1.291v15.89a0.875,0.875,0,0,0,.88.87H87.19a0.875,0.875,0,0,0,.88-0.87V3891.2H89.93v15.89a0.875,0.875,0,0,0,.88.87h12.857a0.875,0.875,0,0,0,.88-0.87V3891.2h1.29v18.28H72.163V3891.2Zm37.077,23.17H68.76v-3.15h40.48v3.15Z" transform="translate(-67 -3865.13)"/>
</svg>
