<svg xmlns="http://www.w3.org/2000/svg" width="56" height="56" viewBox="0 0 56 56">
  <path d="M265.747,3863.14H222.253a6.256,6.256,0,0,0-6.253,6.25v43.49a6.256,6.256,0,0,0,6.253,6.25h43.494a6.256,6.256,0,0,0,6.253-6.25v-43.49A6.256,6.256,0,0,0,265.747,3863.14Zm4.466,49.74a4.476,4.476,0,0,1-4.466,4.47H222.253a4.476,4.476,0,0,1-4.466-4.47v-43.49a4.467,4.467,0,0,1,4.466-4.46h43.494a4.468,4.468,0,0,1,4.466,4.46v43.49Zm-6.494-42.35H224.281a0.893,0.893,0,0,0-.894.89v39.43a0.9,0.9,0,0,0,.894.9h4.766a0.9,0.9,0,0,0,0-1.79h-3.873v-37.65h37.651v1.49a0.894,0.894,0,0,0,1.788,0v-2.38A0.893,0.893,0,0,0,263.719,3870.53Zm0,5.95a0.9,0.9,0,0,0-.894.9v32.58h-30.2a0.9,0.9,0,0,0,0,1.79h31.1a0.9,0.9,0,0,0,.894-0.9v-33.47A0.9,0.9,0,0,0,263.719,3876.48ZM244,3907.82a16.68,16.68,0,1,0-16.681-16.68A16.7,16.7,0,0,0,244,3907.82Zm-0.894-31.55v2.65a0.894,0.894,0,1,0,1.788,0v-2.65a14.892,14.892,0,0,1,0,29.73v-2.65a0.894,0.894,0,0,0-1.788,0V3906A14.892,14.892,0,0,1,243.106,3876.27Zm-6.37,17.55a2.68,2.68,0,1,0-2.68-2.68A2.688,2.688,0,0,0,236.736,3893.82Zm0-3.58a0.9,0.9,0,1,1-.893.9A0.9,0.9,0,0,1,236.736,3890.24Zm14.528,3.58a2.68,2.68,0,1,0-2.681-2.68A2.688,2.688,0,0,0,251.264,3893.82Zm0-3.58a0.9,0.9,0,1,1-.894.9A0.9,0.9,0,0,1,251.264,3890.24Z" transform="translate(-216 -3863.13)"/>
</svg>
