<svg xmlns="http://www.w3.org/2000/svg" width="54" height="54" viewBox="0 0 54 54">
  <path id="Forma_1" data-name="Forma 1" class="cls-1" d="M105.408,3959.14H70.592a0.858,0.858,0,0,0-.862.86v52.27a0.858,0.858,0,0,0,.862.86h34.816a0.858,0.858,0,0,0,.861-0.86V3960A0.858,0.858,0,0,0,105.408,3959.14Zm-0.862,52.27H71.454v-50.55h33.092v50.55Zm5.557-20.85a0.861,0.861,0,0,0-1.41.99,5.771,5.771,0,0,1,0,6.63,0.861,0.861,0,0,0,.21,1.2,0.834,0.834,0,0,0,.495.16,0.859,0.859,0,0,0,.7-0.37A7.494,7.494,0,0,0,110.1,3990.56Zm2.894-2.03a0.861,0.861,0,0,0-1.41.99,9.318,9.318,0,0,1,0,10.7,0.863,0.863,0,0,0,.21,1.2,0.9,0.9,0,0,0,.5.15,0.876,0.876,0,0,0,.7-0.36A11.035,11.035,0,0,0,113,3988.53Zm-45.9,1.82a0.864,0.864,0,0,0-1.2.21,7.5,7.5,0,0,0,0,8.61,0.861,0.861,0,0,0,.706.37,0.832,0.832,0,0,0,.495-0.16,0.86,0.86,0,0,0,.21-1.2,5.775,5.775,0,0,1,0-6.63A0.86,0.86,0,0,0,67.1,3990.35Zm-4.373,4.52a9.244,9.244,0,0,1,1.689-5.35,0.862,0.862,0,1,0-1.41-.99,11.037,11.037,0,0,0,0,12.68,0.878,0.878,0,0,0,.706.36,0.9,0.9,0,0,0,.495-0.15,0.862,0.862,0,0,0,.21-1.2A9.291,9.291,0,0,1,62.723,3994.87ZM88,4007.2a12.335,12.335,0,1,0-12.334-12.33A12.345,12.345,0,0,0,88,4007.2Zm0-22.94a10.61,10.61,0,1,1-10.61,10.61A10.622,10.622,0,0,1,88,3984.26Zm2.585,10.61A2.585,2.585,0,1,0,88,3997.45,2.625,2.625,0,0,0,90.585,3994.87Zm-2.585.86a0.882,0.882,0,0,1-.862-0.86,0.862,0.862,0,1,1,1.723,0A0.882,0.882,0,0,1,88,3995.73Zm0-16.22a7.22,7.22,0,1,0-7.218-7.22A7.228,7.228,0,0,0,88,3979.51Zm0-12.71a5.5,5.5,0,1,1-5.495,5.49A5.5,5.5,0,0,1,88,3966.8Zm0,9.26a3.77,3.77,0,1,0-3.771-3.77A3.774,3.774,0,0,0,88,3976.06Zm0-5.82a2.05,2.05,0,1,1-2.048,2.05A2.052,2.052,0,0,1,88,3970.24Zm-1.908,33.3a0.86,0.86,0,1,0,.37-1.68,7.164,7.164,0,1,1,3.077,0,0.865,0.865,0,0,0,.184,1.71,0.607,0.607,0,0,0,.186-0.03A8.887,8.887,0,1,0,86.092,4003.54Z" transform="translate(-61 -3959.13)"/>
</svg>
