<svg xmlns="http://www.w3.org/2000/svg" width="49" height="50" viewBox="0 0 49 50">
  <path d="M267,4006.76a4.361,4.361,0,0,1-4.347,4.37H222.347a4.361,4.361,0,0,1-4.347-4.37v-41.27a4.352,4.352,0,0,1,4.347-4.36h40.306a4.352,4.352,0,0,1,4.347,4.36v41.27Zm-2.371-41.27a1.98,1.98,0,0,0-1.976-1.98H222.347a1.98,1.98,0,0,0-1.976,1.98v41.27a1.982,1.982,0,0,0,1.976,1.99h40.306a1.982,1.982,0,0,0,1.976-1.99v-41.27Zm-22.057,27.39a6.1,6.1,0,1,1,6.068-6.1A6.093,6.093,0,0,1,242.572,3992.88Zm0-9.81a3.71,3.71,0,1,0,3.7,3.71A3.706,3.706,0,0,0,242.572,3983.07Zm0,15.26a11.55,11.55,0,1,1,11.5-11.55A11.538,11.538,0,0,1,242.572,3998.33Zm0-20.72a9.17,9.17,0,1,0,9.13,9.17A9.165,9.165,0,0,0,242.572,3977.61Zm0,25.4a16.23,16.23,0,1,1,16.161-16.23A16.213,16.213,0,0,1,242.572,4003.01Zm0-30.08a13.85,13.85,0,1,0,13.79,13.85A13.84,13.84,0,0,0,242.572,3972.93Zm14.607,15.18H227.937a1.19,1.19,0,0,1,0-2.38h29.242A1.19,1.19,0,0,1,257.179,3988.11Zm-15.074,14.68a1.186,1.186,0,0,1-1.186-1.19v-29.36a1.186,1.186,0,1,1,2.371,0v29.36A1.186,1.186,0,0,1,242.105,4002.79Zm20.237,2.73a1.636,1.636,0,1,1-1.635-1.65A1.641,1.641,0,0,1,262.342,4005.52Zm-4.906,0a1.635,1.635,0,1,1-1.635-1.65A1.641,1.641,0,0,1,257.436,4005.52Zm-5.722,0a1.636,1.636,0,1,1-1.637-1.65A1.642,1.642,0,0,1,251.714,4005.52Zm-22.987,1.64h-4.742a1.19,1.19,0,0,1,0-2.38h4.742A1.19,1.19,0,0,1,228.727,4007.16Z" transform="translate(-218 -3961.13)"/>
</svg>
