<svg xmlns="http://www.w3.org/2000/svg" width="55" height="50.97" viewBox="0 0 55 50.97">
  <path d="M110.422,4074.95a2.894,2.894,0,0,0-2.879,2.91v0.86h-7.7a6.493,6.493,0,0,0-5.347-2.83,6.856,6.856,0,0,0-1.02.09c-1.341-1.52-1.721-3.94-2.077-6.29-0.038-.26-0.079-0.5-0.118-0.75l13.228-8.22a5.112,5.112,0,0,0,2.163-3.63h4.6v-17a0.933,0.933,0,1,0-1.865,0v15.11h-2.6a9.885,9.885,0,0,0-1.245-4.65l-0.417-.69a0.938,0.938,0,0,0-.584-0.42,9.111,9.111,0,0,0-1.129-4.22l-1.17-1.93a0.921,0.921,0,0,0-.577-0.43,0.878,0.878,0,0,0-.7.12l-40.533,25.16a0.955,0.955,0,0,0-.308,1.3l1.17,1.94a8.842,8.842,0,0,0,2.922,2.77l-0.46.8a0.949,0.949,0,0,0,.336,1.29l0.805,0.48-1.409,2.45a0.952,0.952,0,0,0,.336,1.29l4.831,2.85a0.876,0.876,0,0,0,.47.13,0.955,0.955,0,0,0,.237-0.03,0.911,0.911,0,0,0,.568-0.44l1.41-2.44,0.805,0.47a0.889,0.889,0,0,0,.469.13,0.9,0.9,0,0,0,.69-0.31l2.971-3.3a4.168,4.168,0,0,0,2.143-.61l3.91-2.43c0.218,0.16.431,0.32,0.653,0.48,2.206,1.57,4.486,3.2,4.893,5.54a0.98,0.98,0,0,0,.257.5,6.592,6.592,0,0,0,6.348,8.11,6.491,6.491,0,0,0,5.347-2.83h7.7v0.94a2.9,2.9,0,0,0,2.879,2.92H115v-15.19h-4.578ZM62.9,4070.39l-0.682-1.13,38.944-24.18,0.682,1.13a7.307,7.307,0,0,1,.863,3.58,3.147,3.147,0,0,1-1,2.7l-19.79,12.29-12.293,7.63h0l-1.141.71a1.6,1.6,0,0,1-.508.19,2.384,2.384,0,0,1-.381.01,1.869,1.869,0,0,1-.237,0,3.116,3.116,0,0,1-.494-0.09c-0.076-.02-0.148-0.03-0.227-0.05-0.168-.05-0.346-0.12-0.523-0.19-0.151-.07-0.3-0.11-0.454-0.19A7.263,7.263,0,0,1,62.9,4070.39Zm5.9,10.82-3.221-1.91,0.94-1.63,3.221,1.91Zm3.643-2.22-0.957-.57h0l-2.973-1.76-2.663-1.57,0.085-.15a0.067,0.067,0,0,0,.042.01,5.4,5.4,0,0,0,1.621.28,1.08,1.08,0,0,0,.18-0.01h0.035a3.54,3.54,0,0,0,.807-0.12s0-.01,0-0.01a3.15,3.15,0,0,0,.67-0.27l0.068-.03,1.149,0.25a0.547,0.547,0,0,1,.089.07c0.108,0.1.225,0.19,0.338,0.28,0.167,0.14.333,0.27,0.507,0.4a1.327,1.327,0,0,1,.144.1c0.242,0.16.487,0.33,0.738,0.47l0.1,0.06c0.264,0.15.528,0.28,0.8,0.41l0.312,0.12c0.18,0.07.361,0.15,0.541,0.21Zm5.01-3.69a2.805,2.805,0,0,1-2.051.26l-0.13-.03c-0.189-.04-0.381-0.09-0.574-0.15l-0.246-.09c-0.179-.06-0.358-0.14-0.536-0.22-0.061-.03-0.123-0.05-0.184-0.08q-0.326-.165-0.641-0.36c-0.1-.06-0.2-0.13-0.3-0.19-0.12-.08-0.238-0.17-0.354-0.25s-0.213-.16-0.315-0.24c-0.126-.11-0.243-0.21-0.361-0.32-0.054-.05-0.112-0.1-0.164-0.15a0.011,0.011,0,0,1-.012-0.01l-0.043-.03,31.93-19.83a3.34,3.34,0,0,0,1-.97,8.926,8.926,0,0,1,.458,2.56h-2.054a0.945,0.945,0,0,0,0,1.89h1.888a3.133,3.133,0,0,1-1.236,2.02L90.2,4067.39a1.03,1.03,0,0,0-.449.14l-7.925,4.97a0.985,0.985,0,0,0-.257.26Zm11.774,3.3c-1.021-2.23-3.2-3.78-5.163-5.18v-0.01l5.491-3.41c0.337,2.24.716,4.72,2,6.6-0.009,0-.018.01-0.027,0.01a6.672,6.672,0,0,0-1.24.83,0.471,0.471,0,0,1-.073.07c-0.154.14-.3,0.28-0.442,0.43-0.048.05-.092,0.1-0.138,0.15-0.117.13-.229,0.27-0.337,0.41C89.283,4078.54,89.255,4078.56,89.231,4078.6Zm0.6,3.9a4.735,4.735,0,0,1,.648-2.36,4.334,4.334,0,0,1,.323-0.49c0.076-.1.153-0.2,0.236-0.29a4.389,4.389,0,0,1,.418-0.41c0.088-.08.177-0.16,0.271-0.23,0.168-.12.346-0.23,0.529-0.34a3.025,3.025,0,0,1,.269-0.14,4.96,4.96,0,0,1,.662-0.25,4.523,4.523,0,0,1,5.529,2.55c0.026,0.05.059,0.11,0.083,0.17a4.6,4.6,0,0,1,.225.73c0.018,0.08.033,0.16,0.047,0.23a4.905,4.905,0,0,1,.082.83,4.815,4.815,0,0,1-.083.83c-0.014.08-.029,0.15-0.047,0.23a4.679,4.679,0,0,1-.225.73c-0.024.06-.057,0.12-0.083,0.18A4.645,4.645,0,0,1,89.832,4082.5Zm10.911,1.89s0-.01,0-0.01a6.6,6.6,0,0,0,.182-0.83c0.01-.06.019-0.12,0.028-0.18a6.747,6.747,0,0,0,.063-0.87,6.88,6.88,0,0,0-.063-0.87c-0.009-.06-0.018-0.12-0.028-0.18a6.814,6.814,0,0,0-.182-0.83s0,0,0-.01h6.8v3.78h-6.8Zm12.393,3.86h-2.714a1.022,1.022,0,0,1-1.015-1.03v-9.36a1.029,1.029,0,0,1,1.015-1.03h2.714v11.42Zm-18.643-9.53a3.78,3.78,0,1,0,3.729,3.78A3.761,3.761,0,0,0,94.493,4078.72Zm0,5.67a1.89,1.89,0,1,1,1.864-1.89A1.881,1.881,0,0,1,94.493,4084.39Z" transform="translate(-60 -4039.16)"/>
</svg>
